<svg xmlns="http://www.w3.org/2000/svg" viewBox="0 0 91.01 24.39"><defs><style>.cls-1{fill:#445bfb;}</style></defs><g id="Layer_2" data-name="Layer 2"><g id="Layer_1-2" data-name="Layer 1"><path class="cls-1" d="M0,.26H3.58a1.54,1.54,0,0,1,.94.28,1.84,1.84,0,0,1,.55.73l5.6,14.55q.28.72.54,1.56c.17.57.33,1.17.49,1.79a19.81,19.81,0,0,1,.94-3.35L18.23,1.27a1.78,1.78,0,0,1,.53-.69A1.43,1.43,0,0,1,19.7.26h3.58L13.65,24.12h-4Z"/><path class="cls-1" d="M38.56,4.6a1.2,1.2,0,0,1-.42.52,1.15,1.15,0,0,1-.57.14A1.42,1.42,0,0,1,36.83,5c-.28-.17-.6-.36-1-.57a7.68,7.68,0,0,0-1.31-.57,5.5,5.5,0,0,0-1.77-.26,5.16,5.16,0,0,0-1.61.23A3.22,3.22,0,0,0,30,4.46a2.58,2.58,0,0,0-.7.94,3.23,3.23,0,0,0-.23,1.22A2.13,2.13,0,0,0,29.54,8a4.15,4.15,0,0,0,1.25,1,12.15,12.15,0,0,0,1.76.71c.66.2,1.34.43,2,.66s1.36.52,2,.83a6.9,6.9,0,0,1,1.76,1.19,5.46,5.46,0,0,1,1.25,1.75,6.21,6.21,0,0,1,.47,2.53,8.4,8.4,0,0,1-.55,3,6.9,6.9,0,0,1-1.62,2.45,7.78,7.78,0,0,1-2.6,1.66,9.58,9.58,0,0,1-3.52.6,11.28,11.28,0,0,1-2.24-.23,11.53,11.53,0,0,1-2.12-.63,11.77,11.77,0,0,1-1.9-1A9.56,9.56,0,0,1,24,21.25l1.28-2.13a1.77,1.77,0,0,1,.44-.38,1,1,0,0,1,.57-.16,1.53,1.53,0,0,1,.89.34l1.13.75a9.62,9.62,0,0,0,1.54.75,6,6,0,0,0,2.12.34,4.33,4.33,0,0,0,2.93-.9,3.21,3.21,0,0,0,1-2.58,2.38,2.38,0,0,0-.47-1.54,3.9,3.9,0,0,0-1.24-1,9.6,9.6,0,0,0-1.77-.68c-.66-.19-1.33-.39-2-.61a19,19,0,0,1-2-.79,6.54,6.54,0,0,1-1.77-1.21,5.43,5.43,0,0,1-1.25-1.86,7.09,7.09,0,0,1-.47-2.74,6.58,6.58,0,0,1,2-4.74A7.39,7.39,0,0,1,29.4.58,8.86,8.86,0,0,1,32.72,0a11.11,11.11,0,0,1,3.89.66,8.86,8.86,0,0,1,3,1.85Z"/><path class="cls-1" d="M55.14,10.77a2.11,2.11,0,0,1-.35.37.84.84,0,0,1-.51.13,1.12,1.12,0,0,1-.61-.19c-.19-.13-.43-.27-.71-.43a5.32,5.32,0,0,0-1-.43A4.71,4.71,0,0,0,50.57,10a4.3,4.3,0,0,0-1.88.39,3.53,3.53,0,0,0-1.34,1.11,5.1,5.1,0,0,0-.81,1.76,9.77,9.77,0,0,0-.26,2.33A9.33,9.33,0,0,0,46.57,18a5.19,5.19,0,0,0,.83,1.77,3.71,3.71,0,0,0,1.32,1.09,4.12,4.12,0,0,0,1.75.37A4.34,4.34,0,0,0,52.05,21a5,5,0,0,0,1-.53c.28-.19.52-.37.72-.53a1.07,1.07,0,0,1,.69-.24.85.85,0,0,1,.74.38l1.17,1.49a7.32,7.32,0,0,1-1.47,1.33,8.57,8.57,0,0,1-1.64.86,8.74,8.74,0,0,1-1.76.45,12.11,12.11,0,0,1-1.8.13,7.5,7.5,0,0,1-3-.58,7.07,7.07,0,0,1-2.42-1.71,8.39,8.39,0,0,1-1.63-2.75,10.65,10.65,0,0,1-.6-3.71,10.94,10.94,0,0,1,.53-3.45,8,8,0,0,1,1.58-2.76,7.27,7.27,0,0,1,2.57-1.82,8.89,8.89,0,0,1,3.53-.66,8.35,8.35,0,0,1,3.33.61,8.05,8.05,0,0,1,2.56,1.75Z"/><path class="cls-1" d="M72.25,24.12H70.42a1.94,1.94,0,0,1-.91-.17,1.13,1.13,0,0,1-.49-.7L68.66,22a12.33,12.33,0,0,1-1.27,1,7.13,7.13,0,0,1-1.28.73,6.37,6.37,0,0,1-1.4.45,8.28,8.28,0,0,1-1.65.15,6.63,6.63,0,0,1-2-.29,4.4,4.4,0,0,1-1.56-.87,4,4,0,0,1-1-1.44,5.17,5.17,0,0,1-.36-2,3.89,3.89,0,0,1,.5-1.9,4.7,4.7,0,0,1,1.67-1.69A10.7,10.7,0,0,1,63.44,15a20,20,0,0,1,4.84-.5v-1a3.78,3.78,0,0,0-.72-2.54,2.63,2.63,0,0,0-2.09-.82,5.16,5.16,0,0,0-1.65.23,6.49,6.49,0,0,0-1.15.52l-.89.52a1.89,1.89,0,0,1-.91.23,1.13,1.13,0,0,1-.71-.22,1.59,1.59,0,0,1-.48-.52l-.74-1.31a10,10,0,0,1,7-2.67,6.7,6.7,0,0,1,2.65.49,5.49,5.49,0,0,1,2,1.35,5.81,5.81,0,0,1,1.23,2.07,7.94,7.94,0,0,1,.42,2.64Zm-7.92-2.54a5.94,5.94,0,0,0,1.16-.11,4.91,4.91,0,0,0,1-.34,5.36,5.36,0,0,0,.9-.56,8.87,8.87,0,0,0,.89-.79V17a16.58,16.58,0,0,0-3,.22,7.91,7.91,0,0,0-1.92.57,2.58,2.58,0,0,0-1,.82,1.84,1.84,0,0,0-.3,1,1.8,1.8,0,0,0,.63,1.55A2.76,2.76,0,0,0,64.33,21.58Z"/><path class="cls-1" d="M76.26,24.12V7.19h2.49a1,1,0,0,1,1,.75l.28,1.33a8.75,8.75,0,0,1,1.08-.95,7.6,7.6,0,0,1,1.21-.75,6.61,6.61,0,0,1,1.36-.47,7.09,7.09,0,0,1,1.58-.17,6.1,6.1,0,0,1,2.46.47,4.75,4.75,0,0,1,1.79,1.32,5.82,5.82,0,0,1,1.09,2,8.55,8.55,0,0,1,.37,2.6V24.12H86.94V13.35a3.58,3.58,0,0,0-.72-2.4,2.65,2.65,0,0,0-2.15-.85,4.2,4.2,0,0,0-2,.48,7,7,0,0,0-1.75,1.3V24.12Z"/></g></g></svg>