<svg xmlns="http://www.w3.org/2000/svg" viewBox="0 0 18.75 24"><defs><style>.cls-1{fill:#f5f5f5;}</style></defs><g id="Layer_2" data-name="Layer 2"><g id="Layer_1-2" data-name="Layer 1"><path class="cls-1" d="M12,7.88H3V3H6.75V0H1.5A1.5,1.5,0,0,0,0,1.5V9.38a6.75,6.75,0,0,0,6.75,6.74h9V21H12v3h5.25a1.5,1.5,0,0,0,1.5-1.5V14.62A6.75,6.75,0,0,0,12,7.88ZM6.75,13.12a3.75,3.75,0,0,1-3.44-2.24H12a3.75,3.75,0,0,1,3.44,2.24Z"/><path class="cls-1" d="M3,17.25H0V22.5A1.5,1.5,0,0,0,1.5,24H6.75V21H3Z"/><path class="cls-1" d="M17.25,0H12V3h3.75V6.75h3V1.5A1.5,1.5,0,0,0,17.25,0Z"/></g></g></svg>